<svg width="17" height="17" viewBox="0 0 17 17" fill="none" xmlns="http://www.w3.org/2000/svg">
<path d="M2.78763 2.8011C1.62895 3.95807 0.955039 5.51333 0.903225 7.14992C0.851411 8.78652 1.4256 10.3813 2.50877 11.6092C3.59194 12.8372 5.10258 13.6059 6.73285 13.7587C8.3334 13.9088 9.93099 13.4541 11.2118 12.4862L14.543 15.8182L14.543 15.8182C14.6259 15.9011 14.7242 15.9668 14.8325 16.0116C14.9407 16.0565 15.0567 16.0795 15.1739 16.0795C15.291 16.0795 15.407 16.0565 15.5152 16.0116C15.6235 15.9668 15.7218 15.9011 15.8047 15.8182C15.8875 15.7354 15.9532 15.6371 15.9981 15.5288C16.0429 15.4206 16.066 15.3046 16.066 15.1874C16.066 15.0703 16.0429 14.9543 15.9981 14.846C15.9532 14.7378 15.8875 14.6394 15.8047 14.5566L15.8047 14.5566L12.4729 11.2257C13.4382 9.94466 13.8909 8.34815 13.74 6.74912C13.5862 5.12023 12.8177 3.61108 11.5908 2.5287C10.3638 1.44631 8.77064 0.872008 7.13529 0.922612C5.49994 0.973217 3.9453 1.64493 2.78763 2.8011ZM2.78763 2.8011L2.85829 2.87186L2.78763 2.8011ZM10.6257 4.06335C11.0632 4.49385 11.4112 5.00672 11.6496 5.57238C11.8879 6.13805 12.012 6.74531 12.0145 7.35913C12.017 7.97296 11.8979 8.58121 11.6642 9.1488C11.4304 9.71638 11.0866 10.2321 10.6525 10.6661C10.2185 11.1002 9.70281 11.444 9.13522 11.6777C8.56764 11.9115 7.95939 12.0305 7.34556 12.028C6.73173 12.0255 6.12447 11.9015 5.55881 11.6632C4.99315 11.4248 4.48028 11.0768 4.04978 10.6392C3.18947 9.76479 2.70954 8.58582 2.71453 7.35913C2.71953 6.13245 3.20904 4.95743 4.07645 4.09002C4.94386 3.22262 6.11888 2.7331 7.34556 2.72811C8.57225 2.72311 9.75122 3.20304 10.6257 4.06335Z" fill="white" stroke="black" stroke-width="0.2"/>
</svg>
