<svg width="24" height="24" viewBox="0 0 24 24" fill="none" xmlns="http://www.w3.org/2000/svg">
<path d="M6 2C4.93913 2 3.92172 2.42143 3.17157 3.17157C2.42143 3.92172 2 4.93913 2 6V14C2 15.0609 2.42143 16.0783 3.17157 16.8284C3.92172 17.5786 4.93913 18 6 18V21C6.00009 21.1809 6.04925 21.3584 6.14223 21.5135C6.23521 21.6687 6.36853 21.7957 6.528 21.8811C6.68747 21.9665 6.86711 22.007 7.04778 21.9983C7.22846 21.9897 7.40341 21.9322 7.554 21.832L13.302 18H18C19.0609 18 20.0783 17.5786 20.8284 16.8284C21.5786 16.0783 22 15.0609 22 14V6C22 4.93913 21.5786 3.92172 20.8284 3.17157C20.0783 2.42143 19.0609 2 18 2H6Z" fill="#FC6001"/>
</svg>
